<svg width="24" height="24" viewBox="0 0 24 24" fill="none" xmlns="http://www.w3.org/2000/svg">
<g clip-path="url(#clip0_420_169)">
<path fill-rule="evenodd" clip-rule="evenodd" d="M3.99984 10C3.64622 10 3.30708 10.1405 3.05703 10.3905C2.80698 10.6406 2.6665 10.9797 2.6665 11.3333V12.6667C2.6665 13.0203 2.80698 13.3594 3.05703 13.6095C3.30708 13.8595 3.64622 14 3.99984 14H5.33317C5.68679 14 6.02593 13.8595 6.27598 13.6095C6.52603 13.3594 6.6665 13.0203 6.6665 12.6667V11.3333C6.6665 10.9797 6.52603 10.6406 6.27598 10.3905C6.02593 10.1405 5.68679 10 5.33317 10H3.99984ZM3.99984 11.3333V12.6667H5.33317V11.3333H3.99984ZM7.99984 11.3333C7.99984 10.9797 8.14031 10.6406 8.39036 10.3905C8.64041 10.1405 8.97955 10 9.33317 10H10.6665C11.0201 10 11.3593 10.1405 11.6093 10.3905C11.8594 10.6406 11.9998 10.9797 11.9998 11.3333V12.6667C11.9998 13.0203 11.8594 13.3594 11.6093 13.6095C11.3593 13.8595 11.0201 14 10.6665 14H9.33317C8.97955 14 8.64041 13.8595 8.39036 13.6095C8.14031 13.3594 7.99984 13.0203 7.99984 12.6667V11.3333ZM9.33317 11.3333H10.6665V12.6667H9.33317V11.3333ZM14.6665 10C14.3129 10 13.9737 10.1405 13.7237 10.3905C13.4736 10.6406 13.3332 10.9797 13.3332 11.3333V12.6667C13.3332 13.0203 13.4736 13.3594 13.7237 13.6095C13.9737 13.8595 14.3129 14 14.6665 14H15.9998C16.3535 14 16.6926 13.8595 16.9426 13.6095C17.1927 13.3594 17.3332 13.0203 17.3332 12.6667V11.3333C17.3332 10.9797 17.1927 10.6406 16.9426 10.3905C16.6926 10.1405 16.3535 10 15.9998 10H14.6665ZM14.6665 11.3333V12.6667H15.9998V11.3333H14.6665ZM2.6665 16.6667C2.6665 16.313 2.80698 15.9739 3.05703 15.7239C3.30708 15.4738 3.64622 15.3333 3.99984 15.3333H5.33317C5.68679 15.3333 6.02593 15.4738 6.27598 15.7239C6.52603 15.9739 6.6665 16.313 6.6665 16.6667V18C6.6665 18.3536 6.52603 18.6928 6.27598 18.9428C6.02593 19.1929 5.68679 19.3333 5.33317 19.3333H3.99984C3.64622 19.3333 3.30708 19.1929 3.05703 18.9428C2.80698 18.6928 2.6665 18.3536 2.6665 18V16.6667ZM5.33317 16.6667V18H3.99984V16.6667H5.33317ZM9.33317 15.3333C8.97955 15.3333 8.64041 15.4738 8.39036 15.7239C8.14031 15.9739 7.99984 16.313 7.99984 16.6667V18C7.99984 18.3536 8.14031 18.6928 8.39036 18.9428C8.64041 19.1929 8.97955 19.3333 9.33317 19.3333H10.6665C11.0201 19.3333 11.3593 19.1929 11.6093 18.9428C11.8594 18.6928 11.9998 18.3536 11.9998 18V16.6667C11.9998 16.313 11.8594 15.9739 11.6093 15.7239C11.3593 15.4738 11.0201 15.3333 10.6665 15.3333H9.33317ZM10.6665 16.6667H9.33317V18H10.6665V16.6667Z" fill="#A1A8B0"/>
<path d="M19.9998 17.6667C19.9998 17.4899 19.9296 17.3203 19.8046 17.1953C19.6796 17.0702 19.51 17 19.3332 17C19.1564 17 18.9868 17.0702 18.8618 17.1953C18.7367 17.3203 18.6665 17.4899 18.6665 17.6667V19.6093L19.5285 20.4713C19.6542 20.5928 19.8226 20.66 19.9974 20.6584C20.1722 20.6569 20.3394 20.5868 20.4631 20.4632C20.5867 20.3396 20.6568 20.1724 20.6583 19.9976C20.6598 19.8228 20.5926 19.6544 20.4712 19.5287L19.9998 19.0573V17.6667Z" fill="#A1A8B0"/>
<path fill-rule="evenodd" clip-rule="evenodd" d="M4 0.666667C4 0.489856 4.07024 0.320287 4.19526 0.195262C4.32029 0.070238 4.48986 0 4.66667 0C4.84348 0 5.01305 0.070238 5.13807 0.195262C5.26309 0.320287 5.33333 0.489856 5.33333 0.666667V4C5.33333 4.17681 5.40357 4.34638 5.5286 4.4714C5.65362 4.59643 5.82319 4.66667 6 4.66667C6.17681 4.66667 6.34638 4.59643 6.4714 4.4714C6.59643 4.34638 6.66667 4.17681 6.66667 4V2H13.3333V0.666667C13.3333 0.489856 13.4036 0.320287 13.5286 0.195262C13.6536 0.070238 13.8232 0 14 0C14.1768 0 14.3464 0.070238 14.4714 0.195262C14.5964 0.320287 14.6667 0.489856 14.6667 0.666667V4C14.6667 4.17681 14.7369 4.34638 14.8619 4.4714C14.987 4.59643 15.1565 4.66667 15.3333 4.66667C15.5101 4.66667 15.6797 4.59643 15.8047 4.4714C15.9298 4.34638 16 4.17681 16 4V2H18C18.5304 2 19.0391 2.21071 19.4142 2.58579C19.7893 2.96086 20 3.46957 20 4V14.7133C21.1677 14.8821 22.2282 15.4868 22.968 16.4059C23.7078 17.3249 24.0722 18.4901 23.9877 19.6669C23.9032 20.8437 23.3762 21.9448 22.5127 22.7487C21.6491 23.5527 20.5132 23.9998 19.3333 24C18.5809 24.0005 17.8396 23.8188 17.1726 23.4706C16.5057 23.1223 15.9329 22.6177 15.5033 22H2C1.46957 22 0.960859 21.7893 0.585786 21.4142C0.210714 21.0391 0 20.5304 0 20V4C0 3.46957 0.210714 2.96086 0.585786 2.58579C0.960859 2.21071 1.46957 2 2 2H4V0.666667ZM14.6667 19.3333C14.6665 18.211 15.0708 17.1262 15.8054 16.2777C16.5401 15.4292 17.5559 14.8738 18.6667 14.7133V8H1.33333V20C1.33333 20.1768 1.40357 20.3464 1.5286 20.4714C1.65362 20.5964 1.82319 20.6667 2 20.6667H14.86C14.7314 20.2339 14.6663 19.7848 14.6667 19.3333ZM22.6667 19.3333C22.6667 20.2174 22.3155 21.0652 21.6904 21.6904C21.0652 22.3155 20.2174 22.6667 19.3333 22.6667C18.4493 22.6667 17.6014 22.3155 16.9763 21.6904C16.3512 21.0652 16 20.2174 16 19.3333C16 18.4493 16.3512 17.6014 16.9763 16.9763C17.6014 16.3512 18.4493 16 19.3333 16C20.2174 16 21.0652 16.3512 21.6904 16.9763C22.3155 17.6014 22.6667 18.4493 22.6667 19.3333Z" fill="#A1A8B0"/>
</g>
<defs>
<clipPath id="clip0_420_169">
<rect width="24" height="24" fill="white"/>
</clipPath>
</defs>
</svg>
