<svg width="24" height="24" viewBox="0 0 24 24" fill="none" xmlns="http://www.w3.org/2000/svg">
<path d="M8.23052 20.3137C8.08165 20.9013 8.07191 21.5155 8.20207 22.1076C3.64544 21.464 1 18.2479 1 15.1117V14.2228C1 13.5155 1.28096 12.8372 1.78108 12.3371C2.2812 11.837 2.9595 11.556 3.66677 11.556H14.3748C14.4014 12.1872 14.6006 12.8023 14.9579 13.3339H3.66677C3.43102 13.3339 3.20492 13.4275 3.03821 13.5942C2.8715 13.7609 2.77785 13.987 2.77785 14.2228V15.1117C2.77785 17.3394 4.71215 19.7341 8.23052 20.3137ZM9.88925 0C11.1859 0 12.4295 0.515099 13.3464 1.43198C14.2632 2.34886 14.7783 3.59242 14.7783 4.88909C14.7783 6.18575 14.2632 7.42931 13.3464 8.34619C12.4295 9.26308 11.1859 9.77817 9.88925 9.77817C8.59258 9.77817 7.34902 9.26308 6.43214 8.34619C5.51526 7.42931 5.00016 6.18575 5.00016 4.88909C5.00016 3.59242 5.51526 2.34886 6.43214 1.43198C7.34902 0.515099 8.59258 0 9.88925 0ZM9.88925 1.77785C9.0641 1.77785 8.27274 2.10564 7.68927 2.68911C7.1058 3.27258 6.77801 4.06394 6.77801 4.88909C6.77801 5.71424 7.1058 6.50559 7.68927 7.08906C8.27274 7.67253 9.0641 8.00033 9.88925 8.00033C10.7144 8.00033 11.5058 7.67253 12.0892 7.08906C12.6727 6.50559 13.0005 5.71424 13.0005 4.88909C13.0005 4.06394 12.6727 3.27258 12.0892 2.68911C11.5058 2.10564 10.7144 1.77785 9.88925 1.77785ZM16.2611 10.8111L16.7642 9.47772C17.2229 8.26878 18.6523 7.67142 19.8577 8.18522L20.5475 8.48034C21.3884 8.83947 22.0853 9.49016 22.2311 10.3649C23.0436 15.2095 18.8389 22.1005 13.9996 23.8587C13.1249 24.1752 12.1791 23.9299 11.4306 23.4214L10.8155 23.0036C10.563 22.8335 10.3503 22.6106 10.1923 22.3504C10.0342 22.0901 9.93451 21.7986 9.90003 21.4961C9.86555 21.1936 9.89712 20.8871 9.99256 20.598C10.088 20.3088 10.245 20.0438 10.4528 19.8212L11.4218 18.7421C11.6489 18.4908 11.9392 18.3051 12.2625 18.2041C12.5858 18.1031 12.9303 18.0906 13.2601 18.1678L15.4379 18.6834C17.1642 17.6043 18.0905 16.0878 18.2149 14.1321L16.654 12.6032C16.4202 12.3757 16.2584 12.0847 16.1886 11.7661C16.1187 11.4475 16.1439 11.1155 16.2611 10.8111Z" fill="#A1A8B0"/>
</svg>
