<svg width="24" height="24" viewBox="0 0 24 24" fill="none" xmlns="http://www.w3.org/2000/svg">
<g clip-path="url(#clip0_420_145)">
<path opacity="0.2" d="M22.5709 4.51417L11.7368 8.12551L0.902832 4.51417L11.7368 0.902832L22.5709 4.51417Z" fill="#A1A8B0"/>
<path d="M20.6484 3.30434L10.861 0.0418609C10.6936 -0.0139536 10.5125 -0.0139536 10.3451 0.0418609L0.55768 3.30434C0.40964 3.35427 0.279057 3.44567 0.181459 3.56766C0.0838604 3.68966 0.0233546 3.83712 0.00713703 3.99251C0.00235186 4.02081 -3.54744e-05 4.04946 3.98299e-07 4.07815V12.2343C3.98299e-07 12.4507 0.0859313 12.6581 0.23889 12.8111C0.391848 12.964 0.599304 13.05 0.815619 13.05C1.03193 13.05 1.23939 12.964 1.39235 12.8111C1.54531 12.6581 1.63124 12.4507 1.63124 12.2343V5.20982L5.05582 6.35067C4.14595 7.82062 3.85662 9.59157 4.25135 11.2747C4.64608 12.9578 5.6926 14.4154 7.16113 15.3276C5.32599 16.0474 3.73961 17.3493 2.57939 19.1294C2.51905 19.2191 2.47714 19.3198 2.45609 19.4259C2.43505 19.5319 2.43528 19.641 2.45679 19.747C2.47829 19.8529 2.52064 19.9535 2.58137 20.0429C2.64209 20.1323 2.71999 20.2088 2.81052 20.2678C2.90106 20.3269 3.00243 20.3674 3.10874 20.3869C3.21505 20.4064 3.32418 20.4046 3.42979 20.3816C3.53541 20.3586 3.63539 20.3148 3.72393 20.2528C3.81247 20.1908 3.88781 20.1118 3.94556 20.0204C5.48198 17.6633 7.90844 16.3124 10.603 16.3124C13.2976 16.3124 15.7241 17.6633 17.2605 20.0204C17.3802 20.1982 17.5649 20.3218 17.775 20.3644C17.985 20.4071 18.2033 20.3654 18.3828 20.2483C18.5623 20.1312 18.6885 19.9482 18.7341 19.7388C18.7798 19.5295 18.7412 19.3105 18.6267 19.1294C17.4665 17.3493 15.874 16.0474 14.045 15.3276C15.5121 14.4155 16.5576 12.9587 16.9523 11.2769C17.3469 9.59502 17.0585 7.82529 16.1503 6.35577L20.6484 4.85707C20.8108 4.80296 20.9521 4.69911 21.0523 4.56022C21.1524 4.42134 21.2063 4.25447 21.2063 4.08325C21.2063 3.91204 21.1524 3.74517 21.0523 3.60628C20.9521 3.4674 20.8108 3.36354 20.6484 3.30943V3.30434ZM15.4968 9.78748C15.497 10.5612 15.3138 11.3239 14.9621 12.013C14.6105 12.7022 14.1005 13.2981 13.4739 13.752C12.8474 14.2059 12.1222 14.5047 11.3578 14.624C10.5933 14.7434 9.81152 14.6797 9.07646 14.4384C8.34139 14.197 7.67403 13.7849 7.12911 13.2356C6.58419 12.6864 6.17726 12.0158 5.94169 11.2789C5.70612 10.542 5.64864 9.75968 5.77395 8.99623C5.89926 8.23277 6.2038 7.50991 6.66259 6.88694L10.3451 8.11037C10.5125 8.16618 10.6936 8.16618 10.861 8.11037L14.5435 6.88694C15.1632 7.72702 15.4972 8.74359 15.4968 9.78748ZM10.603 6.48117L3.39501 4.07815L10.603 1.67514L17.8111 4.07815L10.603 6.48117Z" fill="#A1A8B0"/>
<path d="M17.5518 9.19433L17.5514 9.19523L17.0389 10.4438C16.8795 10.8257 16.8447 11.2445 16.9406 11.6465C17.0364 12.0483 17.257 12.4093 17.5676 12.6874C17.5678 12.6876 17.568 12.6877 17.5682 12.6879L18.9728 13.9527C18.8035 15.4311 18.025 16.6026 16.5759 17.4853L14.5467 17.0437L14.5457 17.0435C14.1291 16.9537 13.6942 16.9681 13.2851 17.0856C12.8759 17.2031 12.5036 17.4206 12.2092 17.72L12.208 17.7213L11.2231 18.7297C10.9613 18.9885 10.7605 19.2991 10.6376 19.6416C10.514 19.9858 10.4727 20.352 10.5176 20.7141C10.5625 21.076 10.692 21.4222 10.8946 21.729L11.311 21.4539L10.8946 21.729C11.097 22.0354 11.367 22.2944 11.6835 22.4905C11.6837 22.4907 11.6839 22.4908 11.6842 22.491L12.3099 22.8816C13.161 23.4132 14.281 23.6984 15.3524 23.342L15.353 23.3418C17.954 22.473 20.3414 20.3578 21.9699 17.9037C23.594 15.4564 24.5273 12.5735 24.081 10.1271C23.888 9.0638 22.9899 8.35174 22.0552 7.98472C22.0551 7.98469 22.055 7.98465 22.0549 7.98461L21.3517 7.70804L21.3511 7.70781C19.9001 7.13921 18.1362 7.77822 17.5518 9.19433Z" fill="#A1A8B0" stroke="white"/>
</g>
<defs>
<clipPath id="clip0_420_145">
<rect width="24" height="24" fill="white"/>
</clipPath>
</defs>
</svg>
